<svg width="1154" height="288" viewBox="0 0 1154 288" fill="none" xmlns="http://www.w3.org/2000/svg">
<path d="M22.4661 21.472H0.962125V8.8H59.5221V21.472H38.0181V76H22.4661V21.472ZM98.2259 23.584C104.626 23.584 109.778 25.504 113.682 29.344C117.65 33.184 119.634 38.88 119.634 46.432V76H104.658V48.736C104.658 44.64 103.762 41.6 101.97 39.616C100.178 37.568 97.5859 36.544 94.1939 36.544C90.4179 36.544 87.4099 37.728 85.1699 40.096C82.9299 42.4 81.8099 45.856 81.8099 50.464V76H66.8339V4.768H81.8099V29.728C83.7939 27.744 86.1939 26.24 89.0099 25.216C91.8259 24.128 94.8979 23.584 98.2259 23.584ZM184.363 50.368C184.363 50.56 184.267 51.904 184.075 54.4H145.003C145.707 57.6 147.371 60.128 149.995 61.984C152.619 63.84 155.883 64.768 159.787 64.768C162.475 64.768 164.843 64.384 166.891 63.616C169.003 62.784 170.955 61.504 172.747 59.776L180.715 68.416C175.851 73.984 168.747 76.768 159.403 76.768C153.579 76.768 148.427 75.648 143.947 73.408C139.467 71.104 136.011 67.936 133.579 63.904C131.147 59.872 129.931 55.296 129.931 50.176C129.931 45.12 131.115 40.576 133.483 36.544C135.915 32.448 139.211 29.28 143.371 27.04C147.595 24.736 152.299 23.584 157.483 23.584C162.539 23.584 167.115 24.672 171.211 26.848C175.307 29.024 178.507 32.16 180.811 36.256C183.179 40.288 184.363 44.992 184.363 50.368ZM157.579 34.912C154.187 34.912 151.339 35.872 149.035 37.792C146.731 39.712 145.323 42.336 144.811 45.664H170.251C169.739 42.4 168.331 39.808 166.027 37.888C163.723 35.904 160.907 34.912 157.579 34.912ZM267.985 41.344H282.193V68.608C278.545 71.36 274.321 73.472 269.521 74.944C264.721 76.416 259.889 77.152 255.025 77.152C248.049 77.152 241.777 75.68 236.209 72.736C230.641 69.728 226.257 65.6 223.057 60.352C219.921 55.04 218.353 49.056 218.353 42.4C218.353 35.744 219.921 29.792 223.057 24.544C226.257 19.232 230.673 15.104 236.305 12.16C241.937 9.152 248.273 7.648 255.313 7.648C261.201 7.648 266.545 8.64 271.345 10.624C276.145 12.608 280.177 15.488 283.441 19.264L273.457 28.48C268.657 23.424 262.865 20.896 256.081 20.896C251.793 20.896 247.985 21.792 244.657 23.584C241.329 25.376 238.737 27.904 236.881 31.168C235.025 34.432 234.097 38.176 234.097 42.4C234.097 46.56 235.025 50.272 236.881 53.536C238.737 56.8 241.297 59.36 244.561 61.216C247.889 63.008 251.665 63.904 255.889 63.904C260.369 63.904 264.401 62.944 267.985 61.024V41.344ZM347.616 24.352V76H333.408V69.856C331.424 72.096 329.056 73.824 326.304 75.04C323.552 76.192 320.576 76.768 317.376 76.768C310.592 76.768 305.216 74.816 301.248 70.912C297.28 67.008 295.296 61.216 295.296 53.536V24.352H310.272V51.328C310.272 59.648 313.76 63.808 320.736 63.808C324.32 63.808 327.2 62.656 329.376 60.352C331.552 57.984 332.64 54.496 332.64 49.888V24.352H347.616ZM412.082 50.368C412.082 50.56 411.986 51.904 411.794 54.4H372.722C373.426 57.6 375.09 60.128 377.714 61.984C380.338 63.84 383.602 64.768 387.506 64.768C390.194 64.768 392.562 64.384 394.61 63.616C396.722 62.784 398.674 61.504 400.466 59.776L408.434 68.416C403.57 73.984 396.466 76.768 387.122 76.768C381.298 76.768 376.146 75.648 371.666 73.408C367.186 71.104 363.73 67.936 361.298 63.904C358.866 59.872 357.65 55.296 357.65 50.176C357.65 45.12 358.834 40.576 361.202 36.544C363.634 32.448 366.93 29.28 371.09 27.04C375.314 24.736 380.018 23.584 385.202 23.584C390.258 23.584 394.834 24.672 398.93 26.848C403.026 29.024 406.226 32.16 408.53 36.256C410.898 40.288 412.082 44.992 412.082 50.368ZM385.298 34.912C381.906 34.912 379.058 35.872 376.754 37.792C374.45 39.712 373.042 42.336 372.53 45.664H397.97C397.458 42.4 396.05 39.808 393.746 37.888C391.442 35.904 388.626 34.912 385.298 34.912ZM439.429 76.768C435.141 76.768 430.949 76.256 426.853 75.232C422.757 74.144 419.493 72.8 417.061 71.2L422.053 60.448C424.357 61.92 427.141 63.136 430.405 64.096C433.669 64.992 436.869 65.44 440.005 65.44C446.341 65.44 449.509 63.872 449.509 60.736C449.509 59.264 448.645 58.208 446.917 57.568C445.189 56.928 442.533 56.384 438.949 55.936C434.725 55.296 431.237 54.56 428.485 53.728C425.733 52.896 423.333 51.424 421.285 49.312C419.301 47.2 418.309 44.192 418.309 40.288C418.309 37.024 419.237 34.144 421.093 31.648C423.013 29.088 425.765 27.104 429.349 25.696C432.997 24.288 437.285 23.584 442.213 23.584C445.861 23.584 449.477 24 453.061 24.832C456.709 25.6 459.717 26.688 462.085 28.096L457.093 38.752C452.549 36.192 447.589 34.912 442.213 34.912C439.013 34.912 436.613 35.36 435.013 36.256C433.413 37.152 432.613 38.304 432.613 39.712C432.613 41.312 433.477 42.432 435.205 43.072C436.933 43.712 439.685 44.32 443.461 44.896C447.685 45.6 451.141 46.368 453.829 47.2C456.517 47.968 458.853 49.408 460.837 51.52C462.821 53.632 463.813 56.576 463.813 60.352C463.813 63.552 462.853 66.4 460.933 68.896C459.013 71.392 456.197 73.344 452.485 74.752C448.837 76.096 444.485 76.768 439.429 76.768ZM506.365 73.504C504.893 74.592 503.069 75.424 500.893 76C498.781 76.512 496.541 76.768 494.173 76.768C488.029 76.768 483.261 75.2 479.869 72.064C476.541 68.928 474.877 64.32 474.877 58.24V37.024H466.909V25.504H474.877V12.928H489.853V25.504H502.717V37.024H489.853V58.048C489.853 60.224 490.397 61.92 491.485 63.136C492.637 64.288 494.237 64.864 496.285 64.864C498.653 64.864 500.669 64.224 502.333 62.944L506.365 73.504ZM604.647 8.8V76H589.095V48.448H558.567V76H543.015V8.8H558.567V35.296H589.095V8.8H604.647ZM644.066 76.768C638.626 76.768 633.73 75.648 629.378 73.408C625.09 71.104 621.73 67.936 619.298 63.904C616.866 59.872 615.65 55.296 615.65 50.176C615.65 45.056 616.866 40.48 619.298 36.448C621.73 32.416 625.09 29.28 629.378 27.04C633.73 24.736 638.626 23.584 644.066 23.584C649.506 23.584 654.37 24.736 658.658 27.04C662.946 29.28 666.306 32.416 668.738 36.448C671.17 40.48 672.386 45.056 672.386 50.176C672.386 55.296 671.17 59.872 668.738 63.904C666.306 67.936 662.946 71.104 658.658 73.408C654.37 75.648 649.506 76.768 644.066 76.768ZM644.066 64.48C647.906 64.48 651.042 63.2 653.474 60.64C655.97 58.016 657.218 54.528 657.218 50.176C657.218 45.824 655.97 42.368 653.474 39.808C651.042 37.184 647.906 35.872 644.066 35.872C640.226 35.872 637.058 37.184 634.562 39.808C632.066 42.368 630.818 45.824 630.818 50.176C630.818 54.528 632.066 58.016 634.562 60.64C637.058 63.2 640.226 64.48 644.066 64.48ZM734.428 24.352V76H720.22V69.856C718.236 72.096 715.868 73.824 713.116 75.04C710.364 76.192 707.388 76.768 704.188 76.768C697.404 76.768 692.028 74.816 688.06 70.912C684.092 67.008 682.108 61.216 682.108 53.536V24.352H697.084V51.328C697.084 59.648 700.572 63.808 707.548 63.808C711.132 63.808 714.012 62.656 716.188 60.352C718.364 57.984 719.452 54.496 719.452 49.888V24.352H734.428ZM765.679 76.768C761.391 76.768 757.199 76.256 753.103 75.232C749.007 74.144 745.743 72.8 743.311 71.2L748.303 60.448C750.607 61.92 753.391 63.136 756.655 64.096C759.919 64.992 763.119 65.44 766.255 65.44C772.591 65.44 775.759 63.872 775.759 60.736C775.759 59.264 774.895 58.208 773.167 57.568C771.439 56.928 768.783 56.384 765.199 55.936C760.975 55.296 757.487 54.56 754.735 53.728C751.983 52.896 749.583 51.424 747.535 49.312C745.551 47.2 744.559 44.192 744.559 40.288C744.559 37.024 745.487 34.144 747.343 31.648C749.263 29.088 752.015 27.104 755.599 25.696C759.247 24.288 763.535 23.584 768.463 23.584C772.111 23.584 775.727 24 779.311 24.832C782.959 25.6 785.967 26.688 788.335 28.096L783.343 38.752C778.799 36.192 773.839 34.912 768.463 34.912C765.263 34.912 762.863 35.36 761.263 36.256C759.663 37.152 758.863 38.304 758.863 39.712C758.863 41.312 759.727 42.432 761.455 43.072C763.183 43.712 765.935 44.32 769.711 44.896C773.935 45.6 777.391 46.368 780.079 47.2C782.767 47.968 785.103 49.408 787.087 51.52C789.071 53.632 790.063 56.576 790.063 60.352C790.063 63.552 789.103 66.4 787.183 68.896C785.263 71.392 782.447 73.344 778.735 74.752C775.087 76.096 770.735 76.768 765.679 76.768ZM849.895 50.368C849.895 50.56 849.799 51.904 849.607 54.4H810.535C811.239 57.6 812.903 60.128 815.527 61.984C818.151 63.84 821.415 64.768 825.319 64.768C828.007 64.768 830.375 64.384 832.423 63.616C834.535 62.784 836.487 61.504 838.279 59.776L846.247 68.416C841.383 73.984 834.279 76.768 824.935 76.768C819.111 76.768 813.959 75.648 809.479 73.408C804.999 71.104 801.543 67.936 799.111 63.904C796.679 59.872 795.463 55.296 795.463 50.176C795.463 45.12 796.647 40.576 799.015 36.544C801.447 32.448 804.743 29.28 808.903 27.04C813.127 24.736 817.831 23.584 823.015 23.584C828.071 23.584 832.647 24.672 836.743 26.848C840.839 29.024 844.039 32.16 846.343 36.256C848.711 40.288 849.895 44.992 849.895 50.368ZM823.111 34.912C819.719 34.912 816.871 35.872 814.567 37.792C812.263 39.712 810.855 42.336 810.343 45.664H835.783C835.271 42.4 833.863 39.808 831.559 37.888C829.255 35.904 826.439 34.912 823.111 34.912ZM887.053 24.352H902.029V76H887.053V24.352ZM894.541 17.152C891.789 17.152 889.549 16.352 887.821 14.752C886.093 13.152 885.229 11.168 885.229 8.8C885.229 6.432 886.093 4.448 887.821 2.848C889.549 1.248 891.789 0.447994 894.541 0.447994C897.293 0.447994 899.533 1.216 901.261 2.752C902.989 4.288 903.853 6.208 903.853 8.512C903.853 11.008 902.989 13.088 901.261 14.752C899.533 16.352 897.293 17.152 894.541 17.152ZM933.304 76.768C929.016 76.768 924.824 76.256 920.728 75.232C916.632 74.144 913.368 72.8 910.936 71.2L915.928 60.448C918.232 61.92 921.016 63.136 924.28 64.096C927.544 64.992 930.744 65.44 933.88 65.44C940.216 65.44 943.384 63.872 943.384 60.736C943.384 59.264 942.52 58.208 940.792 57.568C939.064 56.928 936.408 56.384 932.824 55.936C928.6 55.296 925.112 54.56 922.36 53.728C919.608 52.896 917.208 51.424 915.16 49.312C913.176 47.2 912.184 44.192 912.184 40.288C912.184 37.024 913.112 34.144 914.968 31.648C916.888 29.088 919.64 27.104 923.224 25.696C926.872 24.288 931.16 23.584 936.088 23.584C939.736 23.584 943.352 24 946.936 24.832C950.584 25.6 953.592 26.688 955.96 28.096L950.968 38.752C946.424 36.192 941.464 34.912 936.088 34.912C932.888 34.912 930.488 35.36 928.888 36.256C927.288 37.152 926.488 38.304 926.488 39.712C926.488 41.312 927.352 42.432 929.08 43.072C930.808 43.712 933.56 44.32 937.336 44.896C941.56 45.6 945.016 46.368 947.704 47.2C950.392 47.968 952.728 49.408 954.712 51.52C956.696 53.632 957.688 56.576 957.688 60.352C957.688 63.552 956.728 66.4 954.808 68.896C952.888 71.392 950.072 73.344 946.36 74.752C942.712 76.096 938.36 76.768 933.304 76.768ZM1027.43 73.504C1025.96 74.592 1024.13 75.424 1021.96 76C1019.84 76.512 1017.6 76.768 1015.24 76.768C1009.09 76.768 1004.32 75.2 1000.93 72.064C997.603 68.928 995.939 64.32 995.939 58.24V37.024H987.971V25.504H995.939V12.928H1010.92V25.504H1023.78V37.024H1010.92V58.048C1010.92 60.224 1011.46 61.92 1012.55 63.136C1013.7 64.288 1015.3 64.864 1017.35 64.864C1019.72 64.864 1021.73 64.224 1023.4 62.944L1027.43 73.504ZM1067.23 23.584C1073.63 23.584 1078.78 25.504 1082.68 29.344C1086.65 33.184 1088.63 38.88 1088.63 46.432V76H1073.66V48.736C1073.66 44.64 1072.76 41.6 1070.97 39.616C1069.18 37.568 1066.59 36.544 1063.19 36.544C1059.42 36.544 1056.41 37.728 1054.17 40.096C1051.93 42.4 1050.81 45.856 1050.81 50.464V76H1035.83V4.768H1050.81V29.728C1052.79 27.744 1055.19 26.24 1058.01 25.216C1060.83 24.128 1063.9 23.584 1067.23 23.584ZM1153.36 50.368C1153.36 50.56 1153.27 51.904 1153.08 54.4H1114C1114.71 57.6 1116.37 60.128 1119 61.984C1121.62 63.84 1124.88 64.768 1128.79 64.768C1131.48 64.768 1133.84 64.384 1135.89 63.616C1138 62.784 1139.96 61.504 1141.75 59.776L1149.72 68.416C1144.85 73.984 1137.75 76.768 1128.4 76.768C1122.58 76.768 1117.43 75.648 1112.95 73.408C1108.47 71.104 1105.01 67.936 1102.58 63.904C1100.15 59.872 1098.93 55.296 1098.93 50.176C1098.93 45.12 1100.12 40.576 1102.48 36.544C1104.92 32.448 1108.21 29.28 1112.37 27.04C1116.6 24.736 1121.3 23.584 1126.48 23.584C1131.54 23.584 1136.12 24.672 1140.21 26.848C1144.31 29.024 1147.51 32.16 1149.81 36.256C1152.18 40.288 1153.36 44.992 1153.36 50.368ZM1126.58 34.912C1123.19 34.912 1120.34 35.872 1118.04 37.792C1115.73 39.712 1114.32 42.336 1113.81 45.664H1139.25C1138.74 42.4 1137.33 39.808 1135.03 37.888C1132.72 35.904 1129.91 34.912 1126.58 34.912ZM187.784 119.584C192.584 119.584 196.936 120.704 200.84 122.944C204.808 125.12 207.912 128.224 210.152 132.256C212.392 136.224 213.512 140.864 213.512 146.176C213.512 151.488 212.392 156.16 210.152 160.192C207.912 164.16 204.808 167.264 200.84 169.504C196.936 171.68 192.584 172.768 187.784 172.768C181.192 172.768 176.008 170.688 172.232 166.528V190.624H157.256V120.352H171.56V126.304C175.272 121.824 180.68 119.584 187.784 119.584ZM185.192 160.48C189.032 160.48 192.168 159.2 194.6 156.64C197.096 154.016 198.344 150.528 198.344 146.176C198.344 141.824 197.096 138.368 194.6 135.808C192.168 133.184 189.032 131.872 185.192 131.872C181.352 131.872 178.184 133.184 175.688 135.808C173.256 138.368 172.04 141.824 172.04 146.176C172.04 150.528 173.256 154.016 175.688 156.64C178.184 159.2 181.352 160.48 185.192 160.48ZM274.129 146.368C274.129 146.56 274.033 147.904 273.841 150.4H234.769C235.473 153.6 237.137 156.128 239.761 157.984C242.385 159.84 245.649 160.768 249.553 160.768C252.241 160.768 254.609 160.384 256.657 159.616C258.769 158.784 260.721 157.504 262.513 155.776L270.481 164.416C265.617 169.984 258.513 172.768 249.169 172.768C243.345 172.768 238.193 171.648 233.713 169.408C229.233 167.104 225.777 163.936 223.345 159.904C220.913 155.872 219.697 151.296 219.697 146.176C219.697 141.12 220.881 136.576 223.249 132.544C225.681 128.448 228.977 125.28 233.137 123.04C237.361 120.736 242.065 119.584 247.249 119.584C252.305 119.584 256.881 120.672 260.977 122.848C265.073 125.024 268.273 128.16 270.577 132.256C272.945 136.288 274.129 140.992 274.129 146.368ZM247.345 130.912C243.953 130.912 241.105 131.872 238.801 133.792C236.497 135.712 235.089 138.336 234.577 141.664H260.017C259.505 138.4 258.097 135.808 255.793 133.888C253.489 131.904 250.673 130.912 247.345 130.912ZM298.404 127.168C300.196 124.672 302.596 122.784 305.604 121.504C308.676 120.224 312.196 119.584 316.164 119.584V133.408C314.5 133.28 313.38 133.216 312.804 133.216C308.516 133.216 305.156 134.432 302.724 136.864C300.292 139.232 299.076 142.816 299.076 147.616V172H284.1V120.352H298.404V127.168ZM341.859 121.504H355.107V133.024H342.243V172H327.267V133.024H319.299V121.504H327.267V119.2C327.267 113.312 328.995 108.64 332.451 105.184C335.971 101.728 340.899 100 347.235 100C349.475 100 351.587 100.256 353.571 100.768C355.619 101.216 357.315 101.888 358.659 102.784L354.723 113.632C352.995 112.416 350.979 111.808 348.675 111.808C344.131 111.808 341.859 114.304 341.859 119.296V121.504ZM412.504 146.368C412.504 146.56 412.408 147.904 412.216 150.4H373.144C373.848 153.6 375.512 156.128 378.136 157.984C380.76 159.84 384.024 160.768 387.928 160.768C390.616 160.768 392.984 160.384 395.032 159.616C397.144 158.784 399.096 157.504 400.888 155.776L408.856 164.416C403.992 169.984 396.888 172.768 387.544 172.768C381.72 172.768 376.568 171.648 372.088 169.408C367.608 167.104 364.152 163.936 361.72 159.904C359.288 155.872 358.072 151.296 358.072 146.176C358.072 141.12 359.256 136.576 361.624 132.544C364.056 128.448 367.352 125.28 371.512 123.04C375.736 120.736 380.44 119.584 385.624 119.584C390.68 119.584 395.256 120.672 399.352 122.848C403.448 125.024 406.648 128.16 408.952 132.256C411.32 136.288 412.504 140.992 412.504 146.368ZM385.72 130.912C382.328 130.912 379.48 131.872 377.176 133.792C374.872 135.712 373.464 138.336 372.952 141.664H398.392C397.88 138.4 396.472 135.808 394.168 133.888C391.864 131.904 389.048 130.912 385.72 130.912ZM447.435 172.768C441.931 172.768 436.971 171.648 432.555 169.408C428.203 167.104 424.779 163.936 422.283 159.904C419.851 155.872 418.635 151.296 418.635 146.176C418.635 141.056 419.851 136.48 422.283 132.448C424.779 128.416 428.203 125.28 432.555 123.04C436.971 120.736 441.931 119.584 447.435 119.584C452.875 119.584 457.611 120.736 461.643 123.04C465.739 125.28 468.715 128.512 470.571 132.736L458.955 138.976C456.267 134.24 452.395 131.872 447.339 131.872C443.435 131.872 440.203 133.152 437.643 135.712C435.083 138.272 433.803 141.76 433.803 146.176C433.803 150.592 435.083 154.08 437.643 156.64C440.203 159.2 443.435 160.48 447.339 160.48C452.459 160.48 456.331 158.112 458.955 153.376L470.571 159.712C468.715 163.808 465.739 167.008 461.643 169.312C457.611 171.616 452.875 172.768 447.435 172.768ZM513.255 169.504C511.783 170.592 509.959 171.424 507.783 172C505.671 172.512 503.431 172.768 501.063 172.768C494.919 172.768 490.151 171.2 486.759 168.064C483.431 164.928 481.767 160.32 481.767 154.24V133.024H473.799V121.504H481.767V108.928H496.743V121.504H509.607V133.024H496.743V154.048C496.743 156.224 497.287 157.92 498.375 159.136C499.527 160.288 501.127 160.864 503.175 160.864C505.543 160.864 507.559 160.224 509.223 158.944L513.255 169.504ZM631.794 120.352L613.074 172H598.674L587.058 139.936L575.058 172H560.658L542.034 120.352H556.146L568.338 155.296L581.01 120.352H593.682L605.97 155.296L618.546 120.352H631.794ZM687.942 146.368C687.942 146.56 687.846 147.904 687.654 150.4H648.582C649.286 153.6 650.95 156.128 653.574 157.984C656.198 159.84 659.462 160.768 663.366 160.768C666.054 160.768 668.422 160.384 670.47 159.616C672.582 158.784 674.534 157.504 676.326 155.776L684.294 164.416C679.43 169.984 672.326 172.768 662.982 172.768C657.158 172.768 652.006 171.648 647.526 169.408C643.046 167.104 639.59 163.936 637.158 159.904C634.726 155.872 633.51 151.296 633.51 146.176C633.51 141.12 634.694 136.576 637.062 132.544C639.494 128.448 642.79 125.28 646.95 123.04C651.174 120.736 655.878 119.584 661.062 119.584C666.118 119.584 670.694 120.672 674.79 122.848C678.886 125.024 682.086 128.16 684.39 132.256C686.758 136.288 687.942 140.992 687.942 146.368ZM661.158 130.912C657.766 130.912 654.918 131.872 652.614 133.792C650.31 135.712 648.902 138.336 648.39 141.664H673.83C673.318 138.4 671.91 135.808 669.606 133.888C667.302 131.904 664.486 130.912 661.158 130.912ZM748.504 146.368C748.504 146.56 748.408 147.904 748.216 150.4H709.144C709.848 153.6 711.512 156.128 714.136 157.984C716.76 159.84 720.024 160.768 723.928 160.768C726.616 160.768 728.984 160.384 731.032 159.616C733.144 158.784 735.096 157.504 736.888 155.776L744.856 164.416C739.992 169.984 732.888 172.768 723.544 172.768C717.72 172.768 712.568 171.648 708.088 169.408C703.608 167.104 700.152 163.936 697.72 159.904C695.288 155.872 694.072 151.296 694.072 146.176C694.072 141.12 695.256 136.576 697.624 132.544C700.056 128.448 703.352 125.28 707.512 123.04C711.736 120.736 716.44 119.584 721.624 119.584C726.68 119.584 731.256 120.672 735.352 122.848C739.448 125.024 742.648 128.16 744.952 132.256C747.32 136.288 748.504 140.992 748.504 146.368ZM721.72 130.912C718.328 130.912 715.48 131.872 713.176 133.792C710.872 135.712 709.464 138.336 708.952 141.664H734.392C733.88 138.4 732.472 135.808 730.168 133.888C727.864 131.904 725.048 130.912 721.72 130.912ZM780.651 151.744L773.451 158.848V172H758.475V100.768H773.451V141.088L795.339 120.352H813.195L791.691 142.24L815.115 172H796.971L780.651 151.744ZM870.192 146.368C870.192 146.56 870.096 147.904 869.904 150.4H830.832C831.536 153.6 833.2 156.128 835.824 157.984C838.448 159.84 841.712 160.768 845.616 160.768C848.304 160.768 850.672 160.384 852.72 159.616C854.832 158.784 856.784 157.504 858.576 155.776L866.544 164.416C861.68 169.984 854.576 172.768 845.232 172.768C839.408 172.768 834.256 171.648 829.776 169.408C825.296 167.104 821.84 163.936 819.408 159.904C816.976 155.872 815.76 151.296 815.76 146.176C815.76 141.12 816.944 136.576 819.312 132.544C821.744 128.448 825.04 125.28 829.2 123.04C833.424 120.736 838.128 119.584 843.312 119.584C848.368 119.584 852.944 120.672 857.04 122.848C861.136 125.024 864.336 128.16 866.64 132.256C869.008 136.288 870.192 140.992 870.192 146.368ZM843.408 130.912C840.016 130.912 837.168 131.872 834.864 133.792C832.56 135.712 831.152 138.336 830.64 141.664H856.08C855.568 138.4 854.16 135.808 851.856 133.888C849.552 131.904 846.736 130.912 843.408 130.912ZM911.554 119.584C917.954 119.584 923.106 121.504 927.01 125.344C930.978 129.184 932.962 134.88 932.962 142.432V172H917.986V144.736C917.986 140.64 917.09 137.6 915.298 135.616C913.506 133.568 910.914 132.544 907.522 132.544C903.746 132.544 900.738 133.728 898.498 136.096C896.258 138.4 895.138 141.856 895.138 146.464V172H880.162V120.352H894.466V126.4C896.45 124.224 898.914 122.56 901.858 121.408C904.802 120.192 908.034 119.584 911.554 119.584ZM999.708 100.768V172H985.404V166.048C981.692 170.528 976.316 172.768 969.276 172.768C964.412 172.768 959.996 171.68 956.028 169.504C952.124 167.328 949.052 164.224 946.812 160.192C944.572 156.16 943.452 151.488 943.452 146.176C943.452 140.864 944.572 136.192 946.812 132.16C949.052 128.128 952.124 125.024 956.028 122.848C959.996 120.672 964.412 119.584 969.276 119.584C975.868 119.584 981.02 121.664 984.732 125.824V100.768H999.708ZM971.868 160.48C975.644 160.48 978.78 159.2 981.276 156.64C983.772 154.016 985.02 150.528 985.02 146.176C985.02 141.824 983.772 138.368 981.276 135.808C978.78 133.184 975.644 131.872 971.868 131.872C968.028 131.872 964.86 133.184 962.364 135.808C959.868 138.368 958.62 141.824 958.62 146.176C958.62 150.528 959.868 154.016 962.364 156.64C964.86 159.2 968.028 160.48 971.868 160.48ZM257.926 216.352V259.36C257.926 268.832 255.462 275.872 250.534 280.48C245.606 285.088 238.406 287.392 228.934 287.392C223.942 287.392 219.206 286.784 214.726 285.568C210.246 284.352 206.534 282.592 203.59 280.288L209.542 269.536C211.718 271.328 214.47 272.736 217.798 273.76C221.126 274.848 224.454 275.392 227.782 275.392C232.966 275.392 236.774 274.208 239.206 271.84C241.702 269.536 242.95 266.016 242.95 261.28V259.072C239.046 263.36 233.606 265.504 226.63 265.504C221.894 265.504 217.542 264.48 213.574 262.432C209.67 260.32 206.566 257.376 204.262 253.6C201.958 249.824 200.806 245.472 200.806 240.544C200.806 235.616 201.958 231.264 204.262 227.488C206.566 223.712 209.67 220.8 213.574 218.752C217.542 216.64 221.894 215.584 226.63 215.584C234.118 215.584 239.814 218.048 243.718 222.976V216.352H257.926ZM229.606 253.216C233.574 253.216 236.806 252.064 239.302 249.76C241.862 247.392 243.142 244.32 243.142 240.544C243.142 236.768 241.862 233.728 239.302 231.424C236.806 229.056 233.574 227.872 229.606 227.872C225.638 227.872 222.374 229.056 219.814 231.424C217.254 233.728 215.974 236.768 215.974 240.544C215.974 244.32 217.254 247.392 219.814 249.76C222.374 252.064 225.638 253.216 229.606 253.216ZM322.457 242.368C322.457 242.56 322.361 243.904 322.169 246.4H283.097C283.801 249.6 285.465 252.128 288.089 253.984C290.713 255.84 293.977 256.768 297.881 256.768C300.569 256.768 302.937 256.384 304.985 255.616C307.097 254.784 309.049 253.504 310.841 251.776L318.809 260.416C313.945 265.984 306.841 268.768 297.497 268.768C291.673 268.768 286.521 267.648 282.041 265.408C277.561 263.104 274.105 259.936 271.673 255.904C269.241 251.872 268.025 247.296 268.025 242.176C268.025 237.12 269.209 232.576 271.577 228.544C274.009 224.448 277.305 221.28 281.465 219.04C285.689 216.736 290.393 215.584 295.577 215.584C300.633 215.584 305.209 216.672 309.305 218.848C313.401 221.024 316.601 224.16 318.905 228.256C321.273 232.288 322.457 236.992 322.457 242.368ZM295.673 226.912C292.281 226.912 289.433 227.872 287.129 229.792C284.825 231.712 283.417 234.336 282.905 237.664H308.345C307.833 234.4 306.425 231.808 304.121 229.888C301.817 227.904 299.001 226.912 295.673 226.912ZM365.74 265.504C364.268 266.592 362.444 267.424 360.268 268C358.156 268.512 355.916 268.768 353.548 268.768C347.404 268.768 342.636 267.2 339.244 264.064C335.916 260.928 334.252 256.32 334.252 250.24V229.024H326.284V217.504H334.252V204.928H349.228V217.504H362.092V229.024H349.228V250.048C349.228 252.224 349.772 253.92 350.86 255.136C352.012 256.288 353.612 256.864 355.66 256.864C358.028 256.864 360.044 256.224 361.708 254.944L365.74 265.504ZM394.978 215.584C402.978 215.584 409.122 217.504 413.41 221.344C417.698 225.12 419.842 230.848 419.842 238.528V268H405.826V261.568C403.01 266.368 397.762 268.768 390.082 268.768C386.114 268.768 382.658 268.096 379.714 266.752C376.834 265.408 374.626 263.552 373.09 261.184C371.554 258.816 370.786 256.128 370.786 253.12C370.786 248.32 372.578 244.544 376.162 241.792C379.81 239.04 385.41 237.664 392.962 237.664H404.866C404.866 234.4 403.874 231.904 401.89 230.176C399.906 228.384 396.93 227.488 392.962 227.488C390.21 227.488 387.49 227.936 384.802 228.832C382.178 229.664 379.938 230.816 378.082 232.288L372.706 221.824C375.522 219.84 378.882 218.304 382.786 217.216C386.754 216.128 390.818 215.584 394.978 215.584ZM393.826 258.688C396.386 258.688 398.658 258.112 400.642 256.96C402.626 255.744 404.034 253.984 404.866 251.68V246.4H394.594C388.45 246.4 385.378 248.416 385.378 252.448C385.378 254.368 386.114 255.904 387.586 257.056C389.122 258.144 391.202 258.688 393.826 258.688ZM515.403 216.352L496.683 268H482.283L470.667 235.936L458.667 268H444.267L425.643 216.352H439.755L451.947 251.296L464.619 216.352H477.291L489.579 251.296L502.155 216.352H515.403ZM541.51 215.584C549.51 215.584 555.654 217.504 559.942 221.344C564.23 225.12 566.374 230.848 566.374 238.528V268H552.358V261.568C549.542 266.368 544.294 268.768 536.614 268.768C532.646 268.768 529.19 268.096 526.246 266.752C523.366 265.408 521.158 263.552 519.622 261.184C518.086 258.816 517.318 256.128 517.318 253.12C517.318 248.32 519.11 244.544 522.694 241.792C526.342 239.04 531.942 237.664 539.494 237.664H551.398C551.398 234.4 550.406 231.904 548.422 230.176C546.438 228.384 543.462 227.488 539.494 227.488C536.742 227.488 534.022 227.936 531.334 228.832C528.71 229.664 526.47 230.816 524.614 232.288L519.238 221.824C522.054 219.84 525.414 218.304 529.318 217.216C533.286 216.128 537.35 215.584 541.51 215.584ZM540.358 258.688C542.918 258.688 545.19 258.112 547.174 256.96C549.158 255.744 550.566 253.984 551.398 251.68V246.4H541.126C534.982 246.4 531.91 248.416 531.91 252.448C531.91 254.368 532.646 255.904 534.118 257.056C535.654 258.144 537.734 258.688 540.358 258.688ZM630.254 216.352L606.926 271.168C604.558 277.12 601.614 281.312 598.094 283.744C594.638 286.176 590.446 287.392 585.518 287.392C582.83 287.392 580.174 286.976 577.55 286.144C574.926 285.312 572.782 284.16 571.118 282.688L576.59 272.032C577.742 273.056 579.054 273.856 580.526 274.432C582.062 275.008 583.566 275.296 585.038 275.296C587.086 275.296 588.75 274.784 590.03 273.76C591.31 272.8 592.462 271.168 593.486 268.864L593.678 268.384L571.31 216.352H586.766L601.262 251.392L615.854 216.352H630.254ZM688.513 268.768C683.009 268.768 678.049 267.648 673.633 265.408C669.281 263.104 665.857 259.936 663.361 255.904C660.929 251.872 659.713 247.296 659.713 242.176C659.713 237.056 660.929 232.48 663.361 228.448C665.857 224.416 669.281 221.28 673.633 219.04C678.049 216.736 683.009 215.584 688.513 215.584C693.953 215.584 698.689 216.736 702.721 219.04C706.817 221.28 709.793 224.512 711.649 228.736L700.033 234.976C697.345 230.24 693.473 227.872 688.417 227.872C684.513 227.872 681.281 229.152 678.721 231.712C676.161 234.272 674.881 237.76 674.881 242.176C674.881 246.592 676.161 250.08 678.721 252.64C681.281 255.2 684.513 256.48 688.417 256.48C693.537 256.48 697.409 254.112 700.033 249.376L711.649 255.712C709.793 259.808 706.817 263.008 702.721 265.312C698.689 267.616 693.953 268.768 688.513 268.768ZM741.103 215.584C749.103 215.584 755.247 217.504 759.535 221.344C763.823 225.12 765.967 230.848 765.967 238.528V268H751.951V261.568C749.135 266.368 743.887 268.768 736.207 268.768C732.239 268.768 728.783 268.096 725.839 266.752C722.959 265.408 720.751 263.552 719.215 261.184C717.679 258.816 716.911 256.128 716.911 253.12C716.911 248.32 718.703 244.544 722.287 241.792C725.935 239.04 731.535 237.664 739.087 237.664H750.991C750.991 234.4 749.999 231.904 748.015 230.176C746.031 228.384 743.055 227.488 739.087 227.488C736.335 227.488 733.615 227.936 730.927 228.832C728.303 229.664 726.063 230.816 724.207 232.288L718.831 221.824C721.647 219.84 725.007 218.304 728.911 217.216C732.879 216.128 736.943 215.584 741.103 215.584ZM739.951 258.688C742.511 258.688 744.783 258.112 746.767 256.96C748.751 255.744 750.159 253.984 750.991 251.68V246.4H740.719C734.575 246.4 731.503 248.416 731.503 252.448C731.503 254.368 732.239 255.904 733.711 257.056C735.247 258.144 737.327 258.688 739.951 258.688ZM810.049 215.584C814.849 215.584 819.201 216.704 823.105 218.944C827.073 221.12 830.177 224.224 832.417 228.256C834.657 232.224 835.777 236.864 835.777 242.176C835.777 247.488 834.657 252.16 832.417 256.192C830.177 260.16 827.073 263.264 823.105 265.504C819.201 267.68 814.849 268.768 810.049 268.768C802.945 268.768 797.537 266.528 793.825 262.048V268H779.521V196.768H794.497V221.824C798.273 217.664 803.457 215.584 810.049 215.584ZM807.457 256.48C811.297 256.48 814.433 255.2 816.865 252.64C819.361 250.016 820.609 246.528 820.609 242.176C820.609 237.824 819.361 234.368 816.865 231.808C814.433 229.184 811.297 227.872 807.457 227.872C803.617 227.872 800.449 229.184 797.953 231.808C795.521 234.368 794.305 237.824 794.305 242.176C794.305 246.528 795.521 250.016 797.953 252.64C800.449 255.2 803.617 256.48 807.457 256.48ZM845.803 216.352H860.779V268H845.803V216.352ZM853.291 209.152C850.539 209.152 848.299 208.352 846.571 206.752C844.843 205.152 843.979 203.168 843.979 200.8C843.979 198.432 844.843 196.448 846.571 194.848C848.299 193.248 850.539 192.448 853.291 192.448C856.043 192.448 858.283 193.216 860.011 194.752C861.739 196.288 862.603 198.208 862.603 200.512C862.603 203.008 861.739 205.088 860.011 206.752C858.283 208.352 856.043 209.152 853.291 209.152ZM906.07 215.584C912.47 215.584 917.622 217.504 921.526 221.344C925.494 225.184 927.478 230.88 927.478 238.432V268H912.502V240.736C912.502 236.64 911.606 233.6 909.814 231.616C908.022 229.568 905.43 228.544 902.038 228.544C898.262 228.544 895.254 229.728 893.014 232.096C890.774 234.4 889.654 237.856 889.654 242.464V268H874.678V216.352H888.982V222.4C890.966 220.224 893.43 218.56 896.374 217.408C899.318 216.192 902.55 215.584 906.07 215.584ZM946.717 268.768C944.093 268.768 941.885 267.872 940.093 266.08C938.301 264.288 937.405 262.048 937.405 259.36C937.405 256.608 938.301 254.4 940.093 252.736C941.885 251.008 944.093 250.144 946.717 250.144C949.341 250.144 951.549 251.008 953.341 252.736C955.133 254.4 956.029 256.608 956.029 259.36C956.029 262.048 955.133 264.288 953.341 266.08C951.549 267.872 949.341 268.768 946.717 268.768Z" fill="#52503B"/>
</svg>
